# xmcd
#
# Track frame offsets:
#  150
#  3262
#  16418
#  32995
#  46438
#  59738
#  73381
#  84037
#  97499
#  115394
#  132948
#  136429
#  151462
#  168187
#  182535
#  190496
#  203933
#  233876
#  234466
#
# Disc length: 3412 seconds
#
# Revision: 0
# Processed by: cddbd v1.5.2PL0 Copyright (c) Steve Scherf et al.
# Submitted via: Collectorz.com_Music_Collector 6.11
#
DISCID=120d5213
DTITLE=Clip Clop Club - Live at The GPB
DYEAR=1900
DGENRE=Country
TTITLE0=Hello Big Jim
TTITLE1=Big Balls In CowTown
TTITLE2=I've Given Up Everything
TTITLE3=Mule Train
TTITLE4=Whole Lotta Shakin' Goin' On
TTITLE5=Hear My Heart
TTITLE6=Dad Found The Hand In The Haybale
TTITLE7=Bad Moon Rising
TTITLE8=Ghost Riders In The Sky
TTITLE9=The Porno Queen Sang With The Band
TTITLE10=A Brief Chat
TTITLE11=Write Me In Care Of The Blues
TTITLE12=Cielito Lindo
TTITLE13=The Alamein Train
TTITLE14=1,2,3,4
TTITLE15=Keep Your Hands To Yourself
TTITLE16=Rabbit Shooting
TTITLE17=Footscray
TTITLE18=Untitled
EXTD=
EXTT0=
EXTT1=
EXTT2=
EXTT3=
EXTT4=
EXTT5=
EXTT6=
EXTT7=
EXTT8=
EXTT9=
EXTT10=
EXTT11=
EXTT12=
EXTT13=
EXTT14=
EXTT15=
EXTT16=
EXTT17=
EXTT18=
PLAYORDER=
